<svg xmlns="http://www.w3.org/2000/svg" width="81.503" height="63.379" viewBox="0 0 81.503 63.379">
  <g id="Group_3" data-name="Group 3" transform="translate(-499 -1786.534)">
    <path id="Icon_awesome-home" data-name="Icon awesome-home" d="M39.67,18.7,13.584,40.18V63.369a2.264,2.264,0,0,0,2.264,2.264L31.7,65.591a2.264,2.264,0,0,0,2.252-2.264V49.786a2.264,2.264,0,0,1,2.264-2.264h9.055a2.264,2.264,0,0,1,2.264,2.264V63.318A2.264,2.264,0,0,0,49.8,65.589l15.849.044a2.264,2.264,0,0,0,2.264-2.264v-23.2L41.834,18.7A1.725,1.725,0,0,0,39.67,18.7ZM80.875,33.3l-11.828-9.75V3.951a1.7,1.7,0,0,0-1.7-1.7H59.425a1.7,1.7,0,0,0-1.7,1.7V14.225L45.06,3.8a6.791,6.791,0,0,0-8.631,0L.615,33.3A1.7,1.7,0,0,0,.389,35.69L4,40.076a1.7,1.7,0,0,0,2.393.231L39.67,12.895a1.725,1.725,0,0,1,2.165,0L75.116,40.306a1.7,1.7,0,0,0,2.391-.226l3.608-4.386a1.7,1.7,0,0,0-.241-2.4Z" transform="translate(499.001 1784.28)" fill="#77b2b2"/>
  </g>
</svg>
