<svg xmlns="http://www.w3.org/2000/svg" width="55.53" height="55.53" viewBox="0 0 55.53 55.53">
  <path id="Icon_ionic-ios-settings" data-name="Icon ionic-ios-settings" d="M55.446,32.258a7.144,7.144,0,0,1,4.584-6.665A28.313,28.313,0,0,0,56.6,17.338a7.243,7.243,0,0,1-2.907.622A7.128,7.128,0,0,1,47.174,7.926,28.242,28.242,0,0,0,38.931,4.5,7.14,7.14,0,0,1,25.6,4.5a28.328,28.328,0,0,0-8.257,3.426A7.128,7.128,0,0,1,10.819,17.96a7.007,7.007,0,0,1-2.907-.622A28.938,28.938,0,0,0,4.5,25.607a7.141,7.141,0,0,1,.014,13.33,28.312,28.312,0,0,0,3.427,8.255A7.132,7.132,0,0,1,17.356,56.6a28.493,28.493,0,0,0,8.257,3.426,7.127,7.127,0,0,1,13.3,0A28.328,28.328,0,0,0,47.174,56.6a7.139,7.139,0,0,1,9.414-9.412,28.478,28.478,0,0,0,3.427-8.255A7.178,7.178,0,0,1,55.446,32.258ZM32.4,43.809A11.566,11.566,0,1,1,43.964,32.243,11.564,11.564,0,0,1,32.4,43.809Z" transform="translate(-4.5 -4.5)" fill="#77b2b2"/>
</svg>
